<svg xmlns="http://www.w3.org/2000/svg" width="333.431" height="121.995" viewBox="0 0 333.431 121.995"><g transform="translate(-835.785 -63.502)"><path d="M10738.549,4439.722c-.758,4.609-2.217,9.51-3.383,14.119l-3.385,13.011a3.787,3.787,0,0,0-.174.408c-.176-1.05-5.719-30.164-7.061-30.98l-19.137-3.734-.232,5.31,4.2,1.108c-.058,2.684-.7,5.718-.816,8.4-.175,3.267,1.342,3.092,3.092,5.6,5.6,8.11,3.5,19.9-2.392,27.3-5.426,6.885-3.5-.175-5.018,13.069l11.085,1.633,4.959-24.971c.525-1.225.059-.467.817-1.342l.875,35.355,10.5,2.976,21.062-64.061Zm-261.435,7.352c7.468-2.334,15.4-2.567,16.628,5.834,1.167,7.876-6.185,14.469-10.269,15.578ZM10441,4439.9c1.342,2.625,7.584,13.944,9.1,15.228l6.067-2.8,24.8,56.01c2.393-.409,11.144-3.034,12.427-4.259l-7.234-28.588c1.575-1.458,3.384-2.45,5.076-3.792,12.077-9.685,20.887-28.53,3.851-39.265C10479.739,4422.744,10450.626,4431.729,10441,4439.9Zm92.357,22.4c4.259,9.277-6.186,17.095-14.062,12.077-7.993-5.134-4.784-17.27,5.951-16.628-9.8,6.593.116,13.186,5.543,9.51C10533.124,4465.685,10532.19,4464.751,10533.357,4462.3Zm8.576,11.2c5.134-25.554-32.964-27.713-38.565-1.458-2.567,11.96,6.3,21.587,18.32,20.42C10531.724,4491.473,10540.125,4482.663,10541.934,4473.5Zm20.245-16.1c1.634-.875,17.211-17.386,18.145-18.962l-13.36-12.427-12.777,17.911c-.059.059-.233.35-.292.233-.059-.059-.233.175-.292.292l-1.05-18.2c-1.517-.117-16.511,4.317-18.5,5.251l.292,4.726,4.959-1.05c.759,4.842,1.05,11.085,1.459,16.1.467,7,3.384,4.084,5.659,12.31a24.26,24.26,0,0,1-.642,15.228c-3.326,9.452-2.159,2.1-1.575,14.644l11.493-1.692.175-23.1c7.585,2.684,37.632,20.128,41.891,20.42.992,1.108.875.933,2.451,1.517l-.234-12.427c-9.043-1.342-15.285-5.251-18.729-10.385-2.742-4.025-1.866-2.8-9.159-5.659-1.809-.7-3.5-1.4-5.368-2.1C10562.645,4458.45,10563.17,4459.209,10562.179,4457.4Zm55.892-42.707a51.492,51.492,0,0,0-6.417-8.693c-1.692,2.334-13.36,14.994-13.186,16.569.292,2.625,2.917.759,4.2.059,1.75-.934,3.442-1.75,5.309-2.625C10611.3,4418.311,10615.329,4416.852,10618.07,4414.693Zm-20.828,44.457c-4.492-2.159-5.893-10.91-1.983-15.344,4.726-5.368,11.318-3.909,15.928-.642-1.108,2.392-8.109,9.8-10.21,12.311Zm8.285.175c.816-1.809.816-1.4,2.392-2.859l15.578-17.095c-3.209-5.367-12.193-8.285-19.661-7.584-18.554,1.809-26.08,19.6-18.962,31.331,10.735,17.678,39.382,6.359,43.582-2.1-3.325-1.925-6.009-5.426-9.452-7.935C10615.621,4455.358,10614.8,4458.917,10605.527,4459.326Zm61.61,10.677a24.138,24.138,0,0,1,2.917-11.144c3.209-6.418,4.317-3.559,3.325-9.568-1.283-7.584-2.741-15.928-3.616-23.746l-10.327-.117-3.734,21.646c-.991-1.342-1.05-2.859-1.342-4.493l-2.567-13.886h-14.352l-4.727,28.646a11.82,11.82,0,0,1,4.084,3.326c-1.166,2.625-5.134,5.134-5.951,7.41a80.942,80.942,0,0,0-1.691,11.085l14.061,2.334,3.442-20.712c1.517,1.925,6.185,13.186,8.635,17.5l5.659-13.769,4.025,26.2,15.053,2.217c-.524-4.9-.642-3.209-3.967-5.426C10670.463,4483.83,10667.138,4477.412,10667.138,4470Zm34.247-11.9c2.684,11.552-8.751,16.22-15.461,10.735-7.117-5.834-2.217-17.736,7.877-15.869-5.018.933-6.885,6.768-2.567,9.568C10698.293,4467.027,10701.151,4458.392,10701.385,4458.1Zm8.227,9.977c2.625-11.436-6.242-20.3-17.444-19.137-9.568.992-17.562,8.868-19.487,17.5C10667.371,4490.131,10703.719,4494.04,10709.611,4468.077Z" transform="translate(-9592.029 -4333.921)" fill="#ffcd1d" fill-rule="evenodd"/><g transform="translate(-415 -21)"><path d="M11069.977,5100.255c-.35,1.108-.116.642-.992,1.226-1.049-2.276-1.808-7.352-3.033-9.394l.117-1.692c2.858-.117,5.426.292,6.067,3.209A6.52,6.52,0,0,1,11069.977,5100.255Zm-9.977-12.835,6.359,21.412c4.084-1.109,11.436-7.7,10.269-15.578C11075.4,5084.853,11067.469,5085.086,11060,5087.419Z" transform="translate(-9759.915 -4953.267)" fill="#406588" fill-rule="evenodd"/><path d="M10488.57,4319.677c-.233.292-3.092,8.927-10.151,4.434-4.317-2.8-2.451-8.635,2.567-9.568-10.094-1.867-15,10.035-7.877,15.87C10479.818,4335.9,10491.254,4331.229,10488.57,4319.677Zm-159.451,15.4c-1.809,9.16-10.211,17.97-20.245,18.962-12.019,1.167-20.888-8.46-18.32-20.42C10296.155,4307.366,10334.253,4309.525,10329.119,4335.079Zm167.678-5.426c-5.893,25.963-42.24,22.054-36.932-1.634,1.926-8.634,9.919-16.511,19.487-17.5C10490.554,4309.35,10499.422,4318.218,10496.8,4329.653Zm-133.2-16.919c.117,3.208,0,4.492.584,7-1.926-.467-3.5-1.517-5.427-1.984Zm90.724,18.845c0,7.409,3.325,13.827,8.927,17.5,3.325,2.217,3.441.525,3.967,5.426l-15.053-2.217-4.025-26.2-5.659,13.769c-2.45-4.317-7.118-15.577-8.635-17.5l-3.442,20.712-14.061-2.333a80.961,80.961,0,0,1,1.691-11.085c.817-2.275,4.784-4.784,5.951-7.409a11.82,11.82,0,0,0-4.084-3.326l4.726-28.646h14.353l2.567,13.886c.292,1.633.351,3.15,1.342,4.492l3.734-21.645,10.326.117c.876,7.818,2.334,16.161,3.617,23.746.992,6.009-.116,3.15-3.325,9.568A24.135,24.135,0,0,0,10454.323,4331.579Zm-226.138-30.105c9.626-8.168,38.739-17.153,54.084-7.468,17.036,10.735,8.227,29.58-3.852,39.265-1.691,1.342-3.5,2.334-5.075,3.792l7.234,28.588c-1.284,1.225-10.035,3.851-12.427,4.259l-24.8-56.009-6.067,2.8C10235.77,4315.418,10229.527,4304.1,10228.186,4301.474Zm164.527,19.429c9.276-.409,10.094-3.968,13.477-6.243,3.442,2.509,6.127,6.01,9.452,7.935-4.2,8.46-32.847,19.778-43.583,2.1-7.117-11.727.409-29.521,18.962-31.33,7.468-.7,16.453,2.217,19.661,7.584l-15.577,17.095C10393.529,4319.5,10393.529,4319.094,10392.713,4320.9Zm99.883-26.78,19.137,3.734c1.342.817,6.885,29.93,7.06,30.98a3.954,3.954,0,0,1,.175-.409l3.385-13.01c1.166-4.609,2.625-9.51,3.383-14.119l14.994,3.209-21.062,64.061-10.5-2.976-.875-35.356c-.759.875-.292.117-.817,1.342l-4.96,24.971-11.085-1.634c1.518-13.244-.408-6.185,5.019-13.069,5.892-7.41,7.992-19.195,2.392-27.3-1.75-2.508-3.268-2.333-3.092-5.6.116-2.684.758-5.717.816-8.4l-4.2-1.108Zm-143.232,24.854c.992,1.809.467,1.05,4.551,2.625,1.867.7,3.559,1.4,5.368,2.1,7.293,2.859,6.417,1.633,9.159,5.659,3.442,5.134,9.686,9.043,18.729,10.385l.233,12.427c-1.575-.583-1.458-.408-2.45-1.517-4.259-.292-34.306-17.736-41.891-20.42l-.175,23.1-11.493,1.692c-.584-12.544-1.751-5.192,1.574-14.644a24.26,24.26,0,0,0,.643-15.228c-2.275-8.227-5.193-5.309-5.659-12.311-.409-5.018-.7-11.26-1.459-16.1l-4.959,1.05-.292-4.726c1.984-.933,16.979-5.367,18.5-5.251l1.05,18.2c.059-.116.233-.35.292-.292.059.117.233-.175.292-.233l12.777-17.912,13.36,12.427C10366.575,4301.59,10351,4318.1,10349.363,4318.977Zm55.893-42.707c-2.741,2.159-6.768,3.617-10.093,5.31-1.866.875-3.559,1.691-5.31,2.625-1.283.7-3.908,2.567-4.2-.058-.175-1.576,11.493-14.236,13.186-16.569A51.561,51.561,0,0,1,10405.256,4276.27Zm-33.664,11.844a18.845,18.845,0,0,0,1.635,2.333c1.225,1.4,1.342.817,1.809,2.625a6.367,6.367,0,0,0-3.443,1.984,34.731,34.731,0,0,1-4.783-4.084l-9.394-8.4c-1.867-1.633-3.15-2.158-4.608-4.317-2.334,1.225-5.135,2.45-6.885,4.434v-3.967c-3.793,1.867-22.463,7.292-28,9.1-11.728,3.851-7.585,5.543-7.526,15.636,0,6.651-.233,4.784,5.367,3.442v2.976c-8.459,0-12.252,1.75-18.261,4.959l.524-5.484c0-16.336-16.336-25.671-30.63-25.671-13.769,0-20.887,2.217-32.205,6.826a73.353,73.353,0,0,0-10.91,5.951c-3.442,2.159-7,4.551-9.276,7.993l11.2,18.437c.992,1.809,2.8,5.251,4.143,6.243,1.926-.467,3.442-1.517,5.426-1.984.817,3.559,4.434,9.977,5.834,13.419l8.752,19.9c2.859,6.826,5.718,14.177,9.1,20.536,2.334-.175,5.192-1.575,7.643-2.275a116.625,116.625,0,0,0,14.878-4.843c2.159-.933,4.026-2.625,6.126-3.734-1.283-5.6-3.15-11.26-4.434-16.8.408.292,12.31,18.9,32.73,6.009a44.051,44.051,0,0,1,3.85-2.567c0,2.392.351,2.217.409,4.492.233,4.434-.175,3.734,10.852,1.867,2.8-.467,6.3-.875,9.044-1.342,3.85-.584,4.725-2.275,7.817-3.034v-13.36c1.983.467,2.976,1.342,4.784,2.159l14.644,7.118c2.45,1.167,18.5,9.51,19.6,9.51,1.342,0,4.96-2.276,5.951-2.976v-18.261c5.542-.467,8.4-3.5,12.311-4.434-.817,1.75-1.459,7.06-1.459,9.86,2.218.525,4.667.758,7.177,1.225,2.8.467,5.076.875,7.643,1.225,3.326.467,7.993,2.275,10.91.583,1.051-.583,1.926-.992,2.917-1.517.992,1.867,1.926,3.5,2.976,5.426,1.575-.875,2.858-1.633,4.435-2.508,0,10.093,1.108,7.176,10.734,9.043,4.843.934,12.311,2.859,17.445,2.859,1.342,0,4.9-2.334,5.893-2.976-.117-1.925-.817-4.492-.992-6.418,1.283-.292,2.742-.467,4.143-.816,1.575-.409,2.275-.817,3.792-1.167a42.2,42.2,0,0,0-.992,9.393c3.618.292,8.052,1.167,12.077,1.75,7.644,1.108,6.185-.292,6.185,8.11,1.226.583,17.152,6.126,18.845,6.126a4.41,4.41,0,0,0,2.509-1.05c5.426-3.442,3.442-1.575,7.468-13.769,3.151-9.335,18.146-57.41,21.063-62.952-2.45-1.167-19.079-4.726-22.987-5.6-4.2-.992-3.851-.583-7.118,1.167a10.464,10.464,0,0,1-.525-2.976l-28.7-6.417c-2.509-.525-1.984-.35-4.025.817-1.634.933-2.393,1.225-3.793,2.158,0,5.484.467,9.219.467,14.819a37.547,37.547,0,0,0-8.751,1.575c-2.334.759-5.076,2.859-7.06,3.384,0-4.784-3.5-24.562-4.435-28.646-4.025,0-18.2-.7-20.887.351-7.817,2.975,1.342,3.267-18.145,3.092a12.021,12.021,0,0,0-7.935,2.451c-2.159,1.692-.059,8.051-3.093,6.243-1.342-.817-1.75-1.4-3.267-2.334-3.676-2.217-8.052-2.858-12.369-3.909,2.217-1.925,5.6-3.268,8.227-4.609,2.625-1.284,5.775-3.617,8.576-4.259-.758-3.326-10.326-15.461-12.368-19.253-6.885,1.575-10.735,8.46-15.17,13.419l-4.958,5.484C10377.719,4280.412,10372.935,4285.546,10371.592,4288.113Zm-51.05,35.764c-1.167,2.451-.233,3.384-2.567,4.959-5.426,3.676-15.344-2.917-5.542-9.51-10.735-.642-13.944,11.493-5.951,16.627C10314.357,4340.972,10324.8,4333.154,10320.542,4323.877Z" transform="translate(-8964.215 -4174.498)" fill="#406588" fill-rule="evenodd"/><path d="M13050.115,5006.361c-.467-1.984-1.167-5.484,1.167-7.234,1.283-.934,3.325-.642,5.251-.642C13056.066,5000.352,13050.932,5005.778,13050.115,5006.361Zm0,5.426,3.734-3.676c2.1-2.509,9.1-9.918,10.209-12.31-4.609-3.267-11.2-4.726-15.928.642C13044.223,5000.877,13045.623,5009.628,13050.115,5011.787Z" transform="translate(-11629.902 -4865.558)" fill="#406588" fill-rule="evenodd"/></g></g></svg>