<?xml version="1.0" encoding="UTF-8"?>
<!DOCTYPE svg PUBLIC "-//W3C//DTD SVG 1.1//EN" "http://www.w3.org/Graphics/SVG/1.1/DTD/svg11.dtd">
<!-- Creator: CorelDRAW X8 -->
<svg xmlns="http://www.w3.org/2000/svg" xml:space="preserve" width="210mm" height="297mm" version="1.1" style="shape-rendering:geometricPrecision; text-rendering:geometricPrecision; image-rendering:optimizeQuality; fill-rule:evenodd; clip-rule:evenodd"
viewBox="0 0 21000 29700"
 xmlns:xlink="http://www.w3.org/1999/xlink">
 <defs>
  <style type="text/css">
   <![CDATA[
    .fil0 {fill:#33B195;fill-rule:nonzero}
   ]]>
  </style>
 </defs>
 <g id="Camada_x0020_1">
  <metadata id="CorelCorpID_0Corel-Layer"/>
  <path class="fil0" d="M28946 9921c-12,95 -42,264 -102,330 -42,48 -100,43 -176,-78 -88,-140 -20,-369 6,-512 23,-127 54,-253 92,-370 39,-115 80,-222 124,-310 11,-22 21,-43 31,-63 8,-16 16,-31 24,-45 3,32 7,64 10,96 14,155 21,319 20,481 -2,162 -12,323 -29,471zm-3165 344c-5,8 -9,16 -14,25l-136 0c15,-134 40,-303 75,-471 12,-58 25,-117 39,-174 19,113 33,223 38,327 4,107 4,206 -2,293zm-647 -62c-45,87 -81,103 -108,80 -63,-53 -82,-311 -82,-372 3,-103 12,-206 26,-303 16,-95 33,-185 55,-260 10,-38 20,-73 30,-103 5,-15 10,-30 14,-43 1,3 2,6 2,9 23,95 41,207 56,325 13,119 21,244 22,368 -1,103 -6,203 -15,299zm-1389 85c0,1 0,1 -1,2l-94 0c33,-168 68,-368 99,-576 15,85 29,172 39,259 3,28 5,57 8,85 6,80 -12,160 -51,230zm-610 -152c-5,53 -11,103 -18,148 -3,2 -4,4 -7,6 -57,0 -100,-51 -92,-107 3,-21 6,-43 9,-64 16,-129 27,-267 31,-404 2,-120 0,-240 -7,-353 21,70 41,152 57,239 16,88 27,181 31,272 4,91 3,181 -4,263zm-4644 62c0,33 -1,64 -2,92 -70,0 -131,-49 -147,-118 -1,-7 -3,-15 -5,-22 37,-139 68,-286 88,-434 18,-140 27,-281 28,-416 12,119 23,257 29,394 9,185 11,368 9,504zm-586 -76c-7,12 -15,24 -22,35 -5,-24 -11,-48 -18,-72 -55,-189 -142,-349 -211,-467 26,-176 35,-349 34,-510 7,13 13,27 20,41 42,85 80,190 115,300 32,111 56,230 71,348 12,113 15,223 11,325zm-339 27c-6,49 -17,96 -30,141l-83 0c8,-18 17,-36 25,-54 38,-87 70,-179 99,-272 1,61 -2,124 -11,185zm-1592 -537c-27,137 -46,279 -55,414 -1,25 -2,51 -3,76 -4,104 -89,188 -194,188 14,-95 33,-193 59,-290 34,-122 77,-242 125,-352 37,-79 74,-153 112,-219 -16,60 -31,121 -44,183zm-1153 288c0,0 0,1 0,1 -13,-75 -25,-153 -33,-232 -13,-124 -19,-250 -19,-368 1,-48 2,-95 4,-141 8,11 15,21 23,32 60,82 119,181 175,287 -56,140 -108,283 -150,421zm-586 21c-7,51 -13,101 -20,148 -19,127 -128,221 -257,221 -9,-61 -19,-125 -32,-192 0,-20 0,-40 0,-60 4,-120 16,-249 37,-376 23,-128 54,-254 91,-371 40,-115 81,-222 125,-310 10,-22 21,-43 30,-63 9,-16 17,-31 24,-45 4,32 8,64 11,96 14,155 21,319 20,481 -3,162 -12,323 -29,471zm-3402 177c-12,67 -23,131 -32,192 -128,0 -237,-94 -256,-221 -7,-47 -14,-97 -20,-148 -17,-148 -27,-309 -30,-471 -1,-162 7,-326 20,-481 4,-32 7,-64 11,-96 8,14 16,29 24,45 10,20 20,41 31,63 43,88 85,195 124,310 37,117 69,243 92,371 20,127 33,256 36,376 1,20 0,40 0,60zm-861 -429c-9,79 -20,157 -33,232 0,0 0,-1 0,-1 -43,-138 -94,-281 -151,-421 57,-106 115,-205 176,-287 8,-11 15,-21 22,-32 2,46 4,93 4,141 0,118 -6,244 -18,368zm-1128 433c-1,-25 -2,-51 -4,-76 -9,-135 -28,-277 -54,-414 -13,-62 -28,-123 -44,-183 38,66 75,140 112,219 48,110 91,230 125,352 25,97 45,195 58,290 -104,0 -189,-84 -193,-188zm-1621 188c-13,-45 -23,-92 -30,-141 -8,-61 -11,-124 -11,-185 29,93 61,185 100,272 8,18 16,36 25,54l-84 0zm-328 -205c-7,24 -13,48 -19,72 -7,-11 -14,-23 -21,-35 -5,-102 -1,-212 11,-325 14,-118 39,-237 71,-348 34,-110 73,-215 115,-300 6,-14 13,-28 19,-41 -1,161 8,334 35,510 -70,118 -156,278 -211,467zm-478 87c-15,69 -76,118 -147,118 0,-28 -1,-59 -2,-92 -2,-136 0,-319 10,-504 6,-137 17,-275 29,-394 1,135 10,276 27,416 21,148 51,295 88,434 -1,7 -3,15 -5,22zm-4768 118c-2,-2 -4,-4 -6,-6 -7,-45 -13,-95 -18,-148 -7,-82 -9,-172 -5,-263 5,-91 16,-184 31,-272 17,-87 36,-169 58,-239 -7,113 -10,233 -7,353 4,137 14,275 30,404 3,21 6,43 9,64 8,56 -35,107 -92,107zm-634 0c0,-1 0,-1 -1,-2 -38,-70 -57,-150 -50,-230 2,-28 5,-57 8,-85 10,-87 23,-174 39,-259 31,208 66,408 99,576l-95 0zm-1281 -7c-27,23 -63,7 -109,-80 -9,-96 -14,-196 -14,-299 1,-124 8,-249 22,-368 15,-118 33,-230 55,-325 1,-3 2,-6 2,-9 5,13 9,28 14,43 10,30 21,65 31,103 21,75 39,165 55,260 14,97 22,200 25,303 1,61 -18,319 -81,372zm-741 7c-5,-9 -10,-17 -14,-25 -6,-87 -7,-186 -3,-293 6,-104 19,-214 39,-327 13,57 27,116 39,174 35,168 60,337 75,471l-136 0zm-2902 -117c-76,121 -133,126 -176,78 -60,-66 -90,-235 -101,-330 -17,-148 -27,-309 -30,-471 -1,-162 6,-326 20,-481 4,-32 7,-64 11,-96 8,14 15,29 24,45 10,20 20,41 30,63 44,88 85,195 125,310 37,117 68,243 91,370 26,143 95,372 6,512zm34191 -1749c-22,27 -46,61 -74,100 -28,39 -59,83 -92,133 -67,99 -138,220 -212,352 -71,134 -142,281 -206,432 -63,152 -120,309 -166,459 0,0 0,1 0,1 -13,-75 -24,-153 -33,-232 -12,-124 -19,-250 -19,-368 2,-118 7,-228 17,-322 4,-48 10,-91 16,-129 5,-38 9,-71 15,-99 9,-54 15,-86 15,-86 0,0 -15,29 -41,80 -13,26 -28,57 -45,94 -17,36 -35,78 -54,124 -39,92 -77,203 -115,325 -7,24 -14,49 -21,73 -37,-153 -79,-304 -126,-443 -52,-151 -104,-289 -156,-405 -25,-58 -50,-111 -72,-157 -22,-47 -42,-87 -59,-120 -35,-65 -54,-102 -54,-102 0,0 11,41 30,113 10,36 20,80 31,130 11,51 24,107 35,170 15,76 28,162 39,252 -10,11 -20,21 -32,33 -15,15 -30,31 -47,48 -16,17 -32,36 -49,55 -71,77 -145,175 -221,285 -43,66 -86,137 -126,211 -13,-37 -26,-74 -40,-110 -44,-115 -87,-221 -129,-310 -20,-44 -40,-85 -58,-120 -17,-36 -33,-67 -46,-92 -27,-50 -42,-79 -42,-79 0,0 6,33 18,90 6,28 12,63 18,103 7,39 15,84 21,133 14,97 25,211 34,331 7,121 9,249 7,376 -2,74 -6,147 -12,219 -3,10 -6,19 -9,29 -11,39 -21,78 -31,117 -4,-43 -8,-86 -13,-130 -16,-135 -39,-278 -68,-420 -29,-141 -64,-281 -103,-411 -39,-129 -79,-248 -118,-348 -19,-50 -37,-96 -54,-136 -17,-41 -32,-76 -45,-104 -26,-57 -40,-90 -40,-90 0,0 5,36 16,99 5,31 10,70 16,113 5,44 11,93 16,147 12,107 18,232 21,364 2,132 -1,272 -11,410 -10,139 -26,275 -47,401 -16,98 -34,189 -53,271 2,-56 3,-115 4,-175 -2,-132 -11,-271 -28,-409 -19,-138 -45,-275 -77,-400 -33,-126 -68,-242 -105,-338 -17,-49 -35,-93 -51,-131 -16,-39 -31,-73 -44,-100 -25,-54 -40,-85 -40,-85 0,0 6,34 16,95 5,30 10,66 14,108 6,42 11,89 14,140 9,102 10,222 7,347 -5,125 -18,257 -39,385 -12,72 -27,142 -43,210 -7,-21 -15,-41 -23,-62 -44,-107 -93,-211 -144,-306 -52,-95 -104,-181 -153,-251 -23,-36 -46,-68 -67,-96 -21,-28 -39,-52 -55,-71 -31,-39 -49,-62 -49,-62 0,0 10,28 28,76 8,24 18,54 28,87 11,34 22,72 33,114 23,82 43,180 59,283 16,103 26,213 30,321 4,128 53,345 -125,315 -121,-20 -158,-171 -142,-273 26,-169 74,-334 141,-492 -169,186 -266,426 -407,613 9,-165 44,-332 89,-491 29,-107 65,-213 103,-310 10,-25 20,-48 30,-72 10,-23 20,-45 30,-67 9,-23 20,-43 30,-64 9,-19 18,-37 27,-55 15,-29 29,-51 39,-64 4,-4 7,-9 11,-13 1,-2 7,-6 10,-8 8,-5 15,-8 20,-9 4,0 7,-1 7,-1 0,0 -3,-1 -9,-5 -6,-3 -16,-7 -30,-9 -14,0 -26,-3 -48,5 -22,9 -51,27 -81,53 -15,13 -31,30 -48,48 -17,17 -36,35 -53,54 -17,19 -35,39 -54,59 -18,21 -36,42 -55,64 -55,67 -111,139 -165,216 -2,-58 -4,-115 -9,-169 -10,-128 -24,-247 -42,-348 -8,-50 -17,-96 -25,-137 -8,-41 -16,-76 -23,-105 -14,-58 -22,-91 -22,-91 0,0 -2,35 -4,96 -1,30 -4,66 -7,108 -3,42 -7,88 -14,139 -11,101 -31,218 -56,341 -20,92 -44,187 -72,281 -18,-40 -37,-80 -58,-120 -44,-84 -91,-165 -140,-243 23,-69 38,-112 38,-112 0,0 -16,19 -45,51 -6,6 -12,13 -19,21 -20,-31 -40,-62 -61,-91 -83,-113 -164,-214 -240,-295 -19,-20 -37,-39 -54,-58 -19,-18 -36,-34 -52,-50 -32,-32 -60,-59 -85,-80 -48,-43 -76,-67 -76,-67 0,0 21,31 58,85 18,27 39,61 62,100 11,19 23,40 36,61 12,22 24,46 37,70 53,96 103,213 150,337 22,60 42,122 60,185 -83,104 -178,232 -267,367 -33,-92 -68,-181 -105,-265 -51,-112 -102,-215 -151,-299 -23,-43 -47,-82 -68,-115 -20,-34 -39,-63 -55,-87 -31,-47 -50,-74 -50,-74 0,0 10,32 27,87 9,28 19,62 29,100 6,23 12,48 19,75 -17,18 -35,41 -56,68 -21,27 -44,57 -68,92 -50,69 -101,154 -154,250 -50,96 -99,204 -140,317 -41,113 -75,230 -99,344 -4,21 -8,42 -12,63l-20 0c23,-68 44,-143 65,-223 26,-109 47,-227 62,-345 11,-104 16,-208 16,-307 32,-47 63,-90 93,-128 28,-38 55,-71 80,-100 24,-30 46,-56 65,-75 37,-41 58,-65 58,-65 0,0 -28,17 -76,46 -25,14 -55,33 -88,55 -41,26 -88,58 -137,96 -4,-61 -10,-118 -17,-170 -5,-43 -12,-83 -18,-118 -6,-36 -12,-66 -18,-91 -11,-50 -18,-78 -18,-78 0,0 -3,29 -8,82 -2,26 -7,57 -12,93 -5,35 -12,75 -21,118 -17,90 -46,193 -80,299 -8,12 -21,31 -29,44 -7,6 -14,12 -21,18 -94,87 -190,186 -281,292 -24,28 -47,57 -70,86 -53,-133 -111,-262 -168,-381 -27,-56 -55,-109 -81,-160 24,-214 41,-417 51,-580 8,-115 13,-210 15,-277 3,-67 5,-105 5,-105 0,0 -11,37 -31,102 -19,65 -47,158 -83,268 -31,94 -67,201 -107,315 -41,-72 -76,-133 -102,-178 -35,-60 -55,-94 -55,-94 0,0 11,39 31,106 20,67 48,163 80,280 1,2 1,4 2,7 -43,116 -89,237 -138,357 -28,71 -58,142 -88,211 -34,-64 -71,-126 -109,-183 -51,-76 -101,-145 -149,-201 -22,-28 -44,-53 -64,-75 -10,-11 -19,-21 -27,-30 -9,-85 -19,-165 -32,-236 -8,-51 -17,-97 -25,-137 -8,-41 -16,-76 -23,-105 -14,-58 -22,-91 -22,-91 0,0 -1,35 -4,95 -1,30 -4,67 -7,109 -3,41 -7,88 -14,139 -11,101 -31,218 -56,340 -26,123 -60,250 -100,374 -42,124 -88,244 -137,353 -18,40 -36,78 -54,114l-1 1c-44,89 -176,56 -176,-42 0,-94 17,-194 33,-272 37,-183 86,-364 129,-498 42,-134 75,-223 75,-223 0,0 -17,19 -46,51 -29,32 -70,79 -118,136 -96,115 -219,276 -333,448 -8,12 -16,24 -24,36 2,-103 9,-205 23,-302 16,-101 35,-195 58,-274 6,-19 11,-38 16,-56 6,-18 12,-35 17,-51 11,-32 20,-59 30,-82 17,-44 27,-70 27,-70 0,0 -18,22 -51,59 -17,19 -36,43 -58,71 -11,15 -22,30 -34,45 -12,17 -24,34 -37,52 -51,73 -104,163 -157,265 -51,102 -99,217 -138,337 -18,57 -35,115 -49,174 3,-27 6,-53 10,-78 16,-96 33,-186 55,-261 10,-38 20,-72 30,-102 10,-31 19,-57 27,-78 16,-43 25,-68 25,-68 0,0 -18,21 -49,57 -16,18 -34,41 -55,68 -21,26 -44,57 -68,92 -41,56 -83,124 -125,199 32,-265 56,-523 68,-724 8,-114 12,-209 15,-276 3,-67 4,-105 4,-105 0,0 -11,37 -30,102 -19,65 -48,158 -84,268 -71,220 -174,510 -288,792 -38,94 -77,186 -115,275 -8,-187 -29,-369 -53,-507 -13,-74 -25,-135 -35,-178 -10,-42 -15,-67 -15,-67 0,0 -4,26 -11,71 -7,45 -18,108 -34,183 -31,151 -86,345 -155,529 -14,36 -29,72 -44,108 3,-12 7,-24 10,-37 27,-91 47,-201 61,-317 13,-117 16,-241 9,-365 -10,-123 -29,-245 -56,-357 -29,-111 -61,-213 -99,-298 -9,-21 -17,-41 -25,-60 -10,-19 -18,-36 -27,-53 -16,-33 -31,-62 -45,-85 -27,-46 -42,-72 -42,-72 0,0 7,30 19,83 6,26 11,59 16,96 3,18 6,38 9,58 2,21 3,42 5,65 9,89 7,193 -1,300 -10,108 -30,218 -60,324 -20,69 -44,135 -70,197 -1,-97 -4,-191 -9,-280 -8,-129 -18,-248 -29,-349 -21,-201 -37,-333 -37,-333 0,0 -22,135 -58,337 -18,102 -41,220 -69,345 -29,125 -62,256 -103,384 -42,128 -89,251 -141,360l-1 1c-38,78 -159,57 -164,-30 -1,-6 -1,-12 0,-19 3,-38 8,-76 13,-114 13,-90 31,-179 51,-263 22,-82 45,-160 69,-224 11,-33 23,-62 33,-88 11,-26 20,-49 28,-68 17,-36 26,-58 26,-58 0,0 -18,17 -49,46 -16,15 -34,33 -55,55 -21,21 -45,45 -70,73 -41,44 -84,97 -129,155 13,-93 30,-184 49,-270 29,-116 59,-224 92,-314 8,-23 16,-45 23,-66 8,-20 16,-39 23,-58 14,-36 27,-68 39,-93 23,-52 36,-81 36,-81 0,0 -21,25 -59,69 -20,22 -42,49 -67,81 -26,32 -54,69 -83,110 -61,82 -124,184 -189,297 -62,114 -123,241 -177,373 -52,132 -97,270 -132,403 -7,28 -14,56 -20,84 -32,-53 -185,-343 -96,-161 31,62 -64,-121 -89,-182 -15,-33 -24,-68 -38,-102 0,0 0,-1 0,-2 23,-62 51,-123 83,-177 37,-60 76,-114 116,-154 10,-11 19,-21 28,-30 9,-9 19,-17 27,-24 17,-16 32,-30 46,-39 26,-20 42,-31 42,-31 0,0 -21,3 -56,9 -19,2 -40,8 -65,15 -13,4 -27,7 -41,12 -14,4 -29,10 -44,16 -60,21 -127,58 -197,104 -7,-68 -10,-135 -8,-200 4,-132 25,-256 54,-359 29,-103 64,-185 90,-242 28,-55 45,-87 45,-87 0,0 -25,26 -68,75 -41,49 -99,123 -158,223 -57,100 -115,227 -155,373 -38,135 -62,287 -65,445 -17,-36 -35,-72 -54,-108 -125,-248 -265,-485 -324,-583 -9,-96 -20,-186 -36,-267 -6,-33 -11,-65 -17,-95 -7,-30 -14,-58 -20,-85 -6,-26 -12,-51 -18,-74 -6,-23 -12,-44 -18,-62 -22,-75 -35,-118 -35,-118 0,0 3,45 10,124 1,19 3,41 4,64 1,24 1,49 2,77 0,27 0,55 1,86 0,30 -2,62 -3,95 -4,132 -23,284 -51,442 -28,142 -68,288 -117,429 -47,-92 -99,-181 -153,-261 -70,-101 -140,-191 -207,-262 -16,-18 -32,-35 -47,-51 -16,-16 -31,-31 -45,-45 -1,-1 -2,-2 -4,-3 -4,-137 -14,-263 -24,-372 -14,-138 -28,-252 -38,-331 -11,-79 -17,-124 -17,-124 0,0 -3,46 -10,126 -6,80 -15,196 -31,334 -30,275 -85,647 -218,980 -34,83 -71,163 -112,238 -42,75 -85,146 -132,210 -49,66 -100,126 -150,177 12,-70 26,-142 42,-213 26,-112 56,-222 89,-325 34,-102 69,-197 103,-276 16,-41 32,-77 46,-109 15,-32 27,-60 39,-82 22,-46 35,-72 35,-72 0,0 -21,21 -58,59 -19,18 -41,41 -65,69 -26,27 -54,58 -83,92 -60,69 -126,153 -196,247 -68,94 -137,199 -202,308 -42,71 -82,144 -119,216 -6,-32 -12,-64 -16,-97 -6,-74 -6,-150 2,-220 10,-70 22,-136 41,-189 5,-13 8,-26 13,-39 5,-11 10,-23 14,-33 8,-22 16,-40 25,-55 15,-29 24,-46 24,-46 0,0 -17,12 -47,32 -15,11 -32,25 -52,42 -10,9 -20,18 -32,28 -10,10 -21,21 -32,33 -48,47 -95,111 -143,186 -22,37 -43,77 -62,119 -18,-95 -32,-195 -41,-296 -9,-124 -11,-248 -6,-365 8,-117 18,-226 35,-318 4,-23 7,-46 11,-67 4,-21 9,-41 13,-59 7,-38 15,-70 22,-97 14,-53 22,-84 22,-84 0,0 -17,28 -47,76 -15,24 -33,54 -52,89 -9,18 -20,37 -30,56 -11,21 -21,42 -32,64 -46,89 -90,198 -134,318 -14,12 -28,23 -43,35 -18,15 -36,31 -55,48 -78,68 -161,155 -248,255 -50,61 -99,127 -147,196 -3,-48 -6,-96 -7,-145 0,-114 5,-229 15,-336 12,-107 26,-208 45,-292 8,-43 17,-82 26,-116 8,-34 16,-64 24,-88 14,-49 22,-77 22,-77 0,0 -17,25 -47,68 -16,21 -33,48 -52,80 -21,31 -43,67 -65,107 -47,80 -95,177 -143,285 -47,108 -92,228 -129,352 -1,2 -1,3 -1,4 -2,-2 -3,-3 -4,-5 4,-28 8,-56 12,-84 25,-150 57,-300 93,-438 38,-138 76,-267 116,-375 19,-54 38,-103 55,-147 17,-43 32,-81 46,-112 27,-61 42,-97 42,-97 0,0 -24,31 -66,86 -21,27 -45,61 -73,100 -28,39 -60,83 -92,133 -67,99 -138,220 -212,352 -50,94 -100,194 -147,298 -62,-69 -123,-131 -183,-183 -25,-22 -48,-43 -71,-63 -4,-4 -8,-7 -13,-10 2,-25 5,-49 7,-72 4,-48 10,-91 15,-129 5,-38 10,-71 16,-99 9,-54 15,-86 15,-86 0,0 -15,29 -41,80 -13,26 -28,57 -45,94 -17,36 -36,78 -54,124 -2,5 -4,10 -6,14 -7,-5 -14,-11 -21,-16 -18,-14 -37,-26 -53,-37 -64,-44 -100,-68 -100,-68 0,0 31,32 84,89 13,14 29,29 44,47 8,10 18,21 27,33 -31,79 -61,167 -91,263 -7,24 -13,49 -20,73 -37,-153 -79,-304 -126,-443 -52,-151 -104,-289 -156,-405 -25,-58 -50,-111 -72,-157 -22,-47 -42,-87 -60,-120 -34,-65 -53,-102 -53,-102 0,0 10,41 29,113 10,36 21,80 32,130 11,51 23,107 34,170 16,76 29,162 40,252 -10,11 -21,21 -32,33 -15,15 -31,31 -47,48 -16,17 -32,36 -50,55 -70,77 -144,175 -220,285 -43,66 -86,137 -127,211 -13,-37 -26,-74 -39,-110 -44,-115 -88,-221 -129,-310 -20,-44 -40,-85 -58,-120 -18,-36 -33,-67 -47,-92 -26,-50 -42,-79 -42,-79 0,0 7,33 18,90 6,28 12,63 19,103 7,39 14,84 21,133 14,97 25,211 33,331 8,121 10,249 8,376 -3,74 -7,147 -12,219 -3,10 -6,19 -9,29 -12,39 -22,78 -31,117 -4,-43 -9,-86 -13,-130 -16,-135 -39,-278 -68,-420 -30,-141 -65,-281 -103,-411 -39,-129 -79,-248 -118,-348 -19,-50 -37,-96 -55,-136 -16,-41 -31,-76 -44,-104 -26,-57 -41,-90 -41,-90 0,0 6,36 16,99 6,31 11,70 16,113 6,44 12,93 17,147 11,107 18,232 21,364 2,132 -1,272 -11,410 -10,139 -27,275 -47,401 -17,98 -34,189 -53,271 2,-56 3,-115 3,-175 -1,-132 -11,-271 -28,-409 -18,-138 -44,-275 -76,-400 -33,-126 -68,-242 -105,-338 -17,-49 -35,-93 -52,-131 -16,-39 -30,-73 -43,-100 -26,-54 -40,-85 -40,-85 0,0 5,34 15,95 6,30 11,66 15,108 6,42 11,89 14,140 9,102 10,222 7,347 -6,125 -19,257 -39,385 -5,30 -11,61 -17,90 -2,56 -6,112 -12,168 -13,120 -193,107 -191,-13 0,-1 0,-2 0,-2 4,-108 14,-218 29,-321 17,-103 37,-201 60,-283 10,-42 22,-80 32,-114 11,-33 20,-63 29,-87 18,-48 28,-76 28,-76 0,0 -18,23 -49,62 -16,19 -35,43 -55,71 -21,28 -44,60 -68,96 -49,70 -100,156 -152,251 -51,95 -100,199 -144,306 -8,21 -16,41 -23,62 -17,-68 -31,-138 -43,-210 -21,-128 -34,-260 -39,-385 -3,-125 -2,-245 7,-347 3,-51 8,-98 13,-140 5,-42 10,-78 15,-108 10,-61 16,-95 16,-95 0,0 -15,31 -40,85 -14,27 -28,61 -44,100 -16,38 -34,82 -51,131 -38,96 -73,212 -106,338 -31,125 -57,262 -76,400 -17,138 -26,277 -28,409 0,60 2,119 4,175 -19,-82 -37,-173 -54,-271 -20,-126 -36,-262 -47,-401 -9,-138 -13,-278 -11,-410 4,-132 10,-257 22,-364 4,-54 10,-103 16,-147 6,-43 11,-82 16,-113 10,-63 16,-99 16,-99 0,0 -15,33 -40,90 -14,28 -28,63 -45,104 -17,40 -36,86 -54,136 -40,100 -79,219 -119,348 -38,130 -73,270 -103,411 -28,142 -51,285 -67,420 -5,44 -9,87 -13,130 -10,-39 -20,-78 -31,-117 -3,-10 -6,-19 -9,-29 -6,-72 -10,-145 -12,-219 -3,-127 0,-255 7,-376 9,-120 19,-234 34,-331 6,-49 13,-94 20,-133 7,-40 13,-75 19,-103 12,-57 18,-90 18,-90 0,0 -15,29 -42,79 -13,25 -29,56 -46,92 -18,35 -38,76 -58,120 -42,89 -85,195 -129,310 -14,36 -27,73 -40,110 -41,-74 -83,-145 -126,-211 -77,-110 -150,-208 -221,-285 -17,-19 -33,-38 -49,-55 -17,-17 -33,-33 -47,-48 -12,-12 -22,-22 -33,-33 12,-90 25,-176 40,-252 11,-63 23,-119 35,-170 11,-50 21,-94 31,-130 19,-72 30,-113 30,-113 0,0 -20,37 -54,102 -17,33 -37,73 -59,120 -23,46 -47,99 -72,157 -52,116 -105,254 -157,405 -46,139 -89,290 -125,443 -7,-24 -14,-49 -21,-73 -30,-96 -60,-184 -91,-263 10,-12 19,-23 28,-33 15,-18 30,-33 43,-47 54,-57 85,-89 85,-89 0,0 -37,24 -101,68 -16,11 -34,23 -53,37 -6,5 -14,11 -21,16 -2,-4 -4,-9 -6,-14 -18,-46 -37,-88 -54,-124 -16,-37 -31,-68 -44,-94 -26,-51 -41,-80 -41,-80 0,0 5,32 15,86 5,28 10,61 15,99 6,38 11,81 15,129 3,23 5,47 7,72 -4,3 -8,6 -13,10 -23,20 -46,41 -71,63 -59,52 -120,114 -182,183 -48,-104 -97,-204 -148,-298 -73,-132 -144,-253 -211,-352 -33,-50 -64,-94 -92,-133 -28,-39 -53,-73 -74,-100 -42,-55 -66,-86 -66,-86 0,0 16,36 42,97 14,31 30,69 46,112 18,44 37,93 56,147 39,108 78,237 116,375 36,138 67,288 92,438 5,28 8,56 12,84 -1,2 -2,3 -3,5 0,-1 -1,-2 -1,-4 -38,-124 -82,-244 -129,-352 -49,-108 -97,-205 -144,-285 -22,-40 -44,-76 -64,-107 -20,-32 -37,-59 -52,-80 -30,-43 -47,-68 -47,-68 0,0 8,28 22,77 8,24 15,54 23,88 9,34 18,73 26,116 19,84 33,185 45,292 11,107 16,222 15,336 -1,49 -3,97 -6,145 -48,-69 -97,-135 -147,-196 -87,-100 -170,-187 -248,-255 -20,-17 -37,-33 -55,-48 -15,-12 -30,-23 -44,-35 -44,-120 -88,-229 -133,-318 -11,-22 -22,-43 -32,-64 -11,-19 -21,-38 -31,-56 -19,-35 -36,-65 -52,-89 -29,-48 -46,-76 -46,-76 0,0 8,31 21,84 8,27 15,59 23,97 4,18 8,38 13,59 3,21 7,44 11,67 17,92 27,201 34,318 5,117 4,241 -5,365 -10,101 -24,201 -41,296 -20,-42 -41,-82 -62,-119 -48,-75 -96,-139 -143,-186 -12,-12 -22,-23 -33,-33 -11,-10 -22,-19 -32,-28 -19,-17 -36,-31 -52,-42 -29,-20 -46,-32 -46,-32 0,0 9,17 24,46 8,15 16,33 25,55 4,10 9,22 14,33 4,13 8,26 12,39 19,53 32,119 42,189 7,70 8,146 1,220 -4,33 -9,65 -16,97 -37,-72 -77,-145 -118,-216 -65,-109 -135,-214 -203,-308 -69,-94 -135,-178 -196,-247 -29,-34 -57,-65 -82,-92 -25,-28 -47,-51 -65,-69 -37,-38 -58,-59 -58,-59 0,0 13,26 35,72 11,22 24,50 38,82 15,32 31,68 47,109 34,79 68,174 102,276 33,103 64,213 90,325 16,71 30,143 42,213 -51,-51 -102,-111 -150,-177 -47,-64 -91,-135 -133,-210 -41,-75 -78,-155 -111,-238 -133,-333 -188,-705 -219,-980 -15,-138 -24,-254 -31,-334 -6,-80 -10,-126 -10,-126 0,0 -6,45 -16,124 -10,79 -25,193 -38,331 -11,109 -20,235 -25,372 -1,1 -2,2 -3,3 -14,14 -30,29 -45,45 -15,16 -31,33 -48,51 -67,71 -136,161 -206,262 -54,80 -106,169 -153,261 -49,-141 -89,-287 -117,-429 -28,-158 -48,-310 -51,-442 -1,-33 -3,-65 -3,-95 0,-31 0,-59 1,-86 0,-28 1,-53 1,-77 1,-23 4,-45 5,-64 6,-79 10,-124 10,-124 0,0 -13,43 -36,118 -5,18 -12,39 -18,62 -5,23 -11,48 -17,74 -7,27 -13,55 -20,85 -7,30 -12,62 -18,95 -15,81 -27,171 -35,267 -59,98 -200,335 -325,583 -18,36 -36,72 -54,108 -3,-158 -26,-310 -64,-445 -41,-146 -98,-273 -156,-373 -58,-100 -116,-174 -157,-223 -44,-49 -68,-75 -68,-75 0,0 16,32 45,87 26,57 61,139 90,242 28,103 50,227 53,359 2,65 0,132 -7,200 -71,-46 -137,-83 -197,-104 -16,-6 -30,-12 -44,-16 -15,-5 -28,-8 -41,-12 -25,-7 -47,-13 -65,-15 -36,-6 -56,-9 -56,-9 0,0 15,11 42,31 13,9 29,23 45,39 9,7 18,15 28,24 9,9 18,19 28,30 40,40 78,94 116,154 32,54 60,115 82,177 0,1 0,2 0,2 -13,34 -23,69 -38,102 -24,61 -119,244 -89,182 89,-182 -63,108 -96,161 -6,-28 -13,-56 -20,-84 -34,-133 -79,-271 -131,-403 -54,-132 -115,-259 -178,-373 -65,-113 -128,-215 -189,-297 -29,-41 -57,-78 -83,-110 -25,-32 -47,-59 -66,-81 -38,-44 -60,-69 -60,-69 0,0 13,29 36,81 12,25 25,57 40,93 7,19 14,38 23,58 7,21 15,43 23,66 33,90 63,198 91,314 20,86 36,177 49,270 -45,-58 -88,-111 -129,-155 -24,-28 -48,-52 -69,-73 -21,-22 -40,-40 -56,-55 -31,-29 -49,-46 -49,-46 0,0 10,22 26,58 9,19 18,42 28,68 11,26 22,55 34,88 24,64 46,142 68,224 21,84 38,173 52,263 5,38 9,76 13,114 0,7 0,13 0,19 -5,87 -126,108 -165,30l0 -1c-52,-109 -99,-232 -141,-360 -41,-128 -75,-259 -104,-384 -27,-125 -51,-243 -69,-345 -36,-202 -57,-337 -57,-337 0,0 -17,132 -38,333 -11,101 -21,220 -29,349 -5,89 -8,183 -8,280 -27,-62 -50,-128 -71,-197 -29,-106 -49,-216 -60,-324 -8,-107 -10,-211 -1,-300 2,-23 3,-44 6,-65 3,-20 6,-40 8,-58 5,-37 11,-70 17,-96 12,-53 18,-83 18,-83 0,0 -15,26 -42,72 -14,23 -28,52 -45,85 -8,17 -17,34 -26,53 -9,19 -17,39 -26,60 -37,85 -70,187 -99,298 -27,112 -46,234 -55,357 -7,124 -4,248 8,365 15,116 34,226 61,317 4,13 7,25 11,37 -15,-36 -30,-72 -44,-108 -70,-184 -124,-378 -155,-529 -16,-75 -27,-138 -35,-183 -6,-45 -10,-71 -10,-71 0,0 -6,25 -15,67 -10,43 -23,104 -35,178 -24,138 -46,320 -53,507 -39,-89 -78,-181 -116,-275 -114,-282 -217,-572 -288,-792 -36,-110 -64,-203 -83,-268 -20,-65 -31,-102 -31,-102 0,0 2,38 4,105 3,67 8,162 15,276 13,201 36,459 69,724 -43,-75 -85,-143 -126,-199 -23,-35 -47,-66 -68,-92 -20,-27 -38,-50 -55,-68 -31,-36 -49,-57 -49,-57 0,0 9,25 25,68 9,21 18,47 27,78 10,30 21,64 30,102 22,75 40,165 56,261 3,25 7,51 9,78 -14,-59 -30,-117 -48,-174 -40,-120 -88,-235 -139,-337 -53,-102 -105,-192 -157,-265 -13,-18 -25,-35 -36,-52 -12,-15 -24,-30 -35,-45 -21,-28 -40,-52 -57,-71 -33,-37 -52,-59 -52,-59 0,0 10,26 28,70 9,23 19,50 29,82 6,16 11,33 17,51 5,18 11,37 16,56 24,79 42,173 59,274 13,97 21,199 22,302 -8,-12 -15,-24 -23,-36 -114,-172 -237,-333 -334,-448 -47,-57 -89,-104 -117,-136 -29,-32 -46,-51 -46,-51 0,0 33,89 75,223 42,134 91,315 129,498 16,78 33,178 33,272 -1,98 -132,131 -177,42l-1 -1c-17,-36 -35,-74 -54,-114 -48,-109 -95,-229 -136,-353 -40,-124 -74,-251 -101,-374 -25,-122 -45,-239 -56,-340 -6,-51 -10,-98 -13,-139 -4,-42 -7,-79 -7,-109 -3,-60 -4,-95 -4,-95 0,0 -8,33 -22,91 -8,29 -15,64 -23,105 -9,40 -18,86 -26,137 -12,71 -22,151 -31,236 -9,9 -18,19 -27,30 -20,22 -42,47 -65,75 -47,56 -97,125 -149,201 -37,57 -74,119 -109,183 -30,-69 -59,-140 -88,-211 -48,-120 -95,-241 -137,-357 0,-3 1,-5 2,-7 31,-117 60,-213 79,-280 20,-67 31,-106 31,-106 0,0 -19,34 -54,94 -26,45 -61,106 -102,178 -40,-114 -77,-221 -107,-315 -36,-110 -64,-203 -84,-268 -19,-65 -30,-102 -30,-102 0,0 1,38 4,105 3,67 7,162 15,277 10,163 28,366 52,580 -27,51 -54,104 -82,160 -57,119 -115,248 -167,381 -23,-29 -46,-58 -70,-86 -91,-106 -188,-205 -282,-292 -7,-6 -14,-12 -20,-18 -9,-13 -21,-32 -30,-44 -34,-106 -62,-209 -79,-299 -10,-43 -16,-83 -21,-118 -6,-36 -10,-67 -12,-93 -6,-53 -9,-82 -9,-82 0,0 -6,28 -17,78 -6,25 -12,55 -18,91 -7,35 -13,75 -18,118 -8,52 -13,109 -17,170 -50,-38 -97,-70 -138,-96 -33,-22 -62,-41 -87,-55 -49,-29 -77,-46 -77,-46 0,0 21,24 59,65 18,19 40,45 64,75 25,29 53,62 81,100 30,38 61,81 92,128 1,99 6,203 17,307 14,118 35,236 62,345 20,80 42,155 65,223l-21 0c-3,-21 -7,-42 -11,-63 -25,-114 -59,-231 -99,-344 -42,-113 -90,-221 -141,-317 -52,-96 -104,-181 -154,-250 -23,-35 -46,-65 -68,-92 -20,-27 -39,-50 -55,-68 6,-27 13,-52 19,-75 10,-38 19,-72 28,-100 17,-55 27,-87 27,-87 0,0 -18,27 -50,74 -16,24 -34,53 -55,87 -21,33 -44,72 -68,115 -49,84 -99,187 -150,299 -37,84 -72,173 -105,265 -90,-135 -184,-263 -268,-367 19,-63 39,-125 60,-185 47,-124 98,-241 150,-337 13,-24 25,-48 37,-70 13,-21 25,-42 37,-61 23,-39 43,-73 62,-100 36,-54 57,-85 57,-85 0,0 -27,24 -76,67 -24,21 -53,48 -85,80 -16,16 -33,32 -51,50 -17,19 -35,38 -54,58 -77,81 -158,182 -240,295 -21,29 -42,60 -62,91 -6,-8 -13,-15 -18,-21 -29,-32 -46,-51 -46,-51 0,0 16,43 39,112 -49,78 -97,159 -141,243 -20,40 -39,80 -58,120 -28,-94 -52,-189 -72,-281 -25,-123 -45,-240 -56,-341 -6,-51 -10,-97 -13,-139 -4,-42 -7,-78 -7,-108 -3,-61 -4,-96 -4,-96 0,0 -8,33 -22,91 -8,29 -15,64 -23,105 -9,41 -18,87 -25,137 -18,101 -32,220 -43,348 -4,54 -7,111 -9,169 -53,-77 -109,-149 -165,-216 -18,-22 -37,-43 -55,-64 -18,-20 -36,-40 -54,-59 -17,-19 -35,-37 -52,-54 -17,-18 -34,-35 -49,-48 -30,-26 -58,-44 -80,-53 -23,-8 -34,-5 -49,-5 -13,2 -23,6 -29,9 -6,4 -9,5 -9,5 0,0 2,1 7,1 5,1 12,4 19,9 4,2 9,6 11,8 3,4 7,9 10,13 10,13 25,35 40,64 9,18 18,36 27,55 10,21 20,41 30,64 10,22 20,44 30,67 9,24 19,47 29,72 39,97 74,203 104,310 44,159 79,326 89,491 -141,-187 -239,-427 -407,-613 67,158 114,323 141,492 15,102 -21,253 -143,273 -177,30 -129,-187 -124,-315 4,-108 14,-218 29,-321 17,-103 37,-201 60,-283 10,-42 21,-80 32,-114 10,-33 20,-63 29,-87 17,-48 27,-76 27,-76 0,0 -18,23 -49,62 -16,19 -34,43 -54,71 -21,28 -44,60 -68,96 -49,70 -100,156 -153,251 -51,95 -100,199 -143,306 -8,21 -16,41 -24,62 -16,-68 -30,-138 -43,-210 -20,-128 -33,-260 -38,-385 -4,-125 -2,-245 7,-347 3,-51 8,-98 13,-140 5,-42 9,-78 15,-108 10,-61 15,-95 15,-95 0,0 -14,31 -40,85 -13,27 -27,61 -43,100 -17,38 -34,82 -52,131 -37,96 -72,212 -105,338 -31,125 -58,262 -76,400 -17,138 -27,277 -28,409 0,60 1,119 3,175 -18,-82 -36,-173 -53,-271 -20,-126 -36,-262 -47,-401 -9,-138 -13,-278 -11,-410 3,-132 10,-257 21,-364 5,-54 11,-103 17,-147 5,-43 11,-82 16,-113 10,-63 16,-99 16,-99 0,0 -15,33 -41,90 -13,28 -28,63 -44,104 -17,40 -36,86 -55,136 -39,100 -79,219 -118,348 -38,130 -73,270 -103,411 -28,142 -51,285 -67,420 -5,44 -9,87 -13,130 -10,-39 -20,-78 -31,-117 -3,-10 -7,-19 -10,-29 -5,-72 -9,-145 -11,-219 -3,-127 0,-255 7,-376 8,-120 19,-234 34,-331 6,-49 13,-94 20,-133 7,-40 13,-75 19,-103 11,-57 18,-90 18,-90 0,0 -15,29 -42,79 -14,25 -29,56 -47,92 -18,35 -37,76 -57,120 -42,89 -86,195 -130,310 -13,36 -26,73 -39,110 -41,-74 -83,-145 -127,-211 -76,-110 -150,-208 -220,-285 -18,-19 -34,-38 -50,-55 -16,-17 -32,-33 -47,-48 -11,-12 -22,-22 -32,-33 12,-90 25,-176 40,-252 11,-63 23,-119 35,-170 11,-50 21,-94 31,-130 19,-72 30,-113 30,-113 0,0 -20,37 -54,102 -18,33 -37,73 -59,120 -23,46 -48,99 -72,157 -52,116 -105,254 -157,405 -46,139 -89,290 -126,443 -6,-24 -13,-49 -20,-73 -38,-122 -77,-233 -116,-325 -18,-46 -37,-88 -54,-124 -16,-37 -31,-68 -45,-94 -26,-51 -40,-80 -40,-80 0,0 5,32 15,86 5,28 10,61 15,99 5,38 11,81 15,129 11,94 15,204 17,322 0,118 -6,244 -18,368 -9,79 -20,157 -33,232 -1,0 -1,-1 -1,-1 -46,-150 -102,-307 -165,-459 -64,-151 -135,-298 -207,-432 -74,-132 -145,-253 -212,-352 -32,-50 -63,-94 -92,-133 -27,-39 -52,-73 -73,-100 -42,-55 -66,-86 -66,-86 0,0 15,36 42,97 14,31 29,69 46,112 18,44 37,93 55,147 40,108 79,237 116,375 36,138 68,288 93,438 23,150 40,301 49,443 6,123 0,1782 0,1782l35133 0c0,0 -6,-1659 0,-1782 10,-142 26,-293 50,-443 25,-150 56,-300 92,-438 38,-138 76,-267 116,-375 19,-54 38,-103 55,-147 17,-43 32,-81 46,-112 27,-61 42,-97 42,-97 0,0 -24,31 -65,86z"/>
 </g>
</svg>
